<svg id="Layer_1" data-name="Layer 1" xmlns="http://www.w3.org/2000/svg" viewBox="0 0 51.05 42.28"><defs><style>.cls-1{fill:#ff9912;}</style></defs><title>bubble icon</title><path class="cls-1" d="M45.54,0h-40A5.51,5.51,0,0,0,0,5.51V28a5.51,5.51,0,0,0,5.51,5.51h0c1.21.36,2.77,1.47,1.23,4.81a18.89,18.89,0,0,1-2.36,3.58c-.47.68,4.07.81,7.12-1.9s4.34-6.32,7.33-6.49H45.54A5.51,5.51,0,0,0,51.05,28V5.51A5.51,5.51,0,0,0,45.54,0ZM12.35,20.79a3.46,3.46,0,1,1,3.46-3.46A3.45,3.45,0,0,1,12.35,20.79Zm14,0a3.46,3.46,0,1,1,3.46-3.46A3.46,3.46,0,0,1,26.31,20.79Zm13.69,0a3.46,3.46,0,1,1,3.46-3.46A3.46,3.46,0,0,1,40,20.79Z"/></svg>