<svg xmlns="http://www.w3.org/2000/svg" width="224" height="128" fill="none"><path fill="#FF5A02" fill-rule="evenodd" d="M161.86 67.81L172.71 30c.25-.89-.63-1.73-1.83-1.73h-19.51L146.71 58l-4.66-29.73h-19.52c-1.19 0-2.08.84-1.82 1.73l10.85 37.81-11.35 41.87c-.24.88.64 1.71 1.82 1.71h19.66l5.02-31.32 5.02 31.32h19.65c1.19 0 2.07-.83 1.83-1.7L161.86 67.8zM42 31.85c0-2.23-1.25-3.34-3.74-3.34h-3v69.38h2.88c2.55 0 3.86-1.12 3.86-3.35V31.85zM40.24 15c14.74 0 23.35 6 23.35 17.8v61.1c0 10.32-7.53 17.5-23.35 17.5H15.87c-1.03 0-1.87-.64-1.87-1.43V16.42c0-.79.84-1.42 1.87-1.42h24.37zM90.38 42.58v14.84h6.36V42.58c0-2.23-1.01-3.34-2.99-3.34-2.2 0-3.32 1.11-3.37 3.34zm26.3 2.57v21.23c0 .78-.84 1.42-1.87 1.42H90.38v28.85c0 2.23 1.18 3.35 3.49 3.35 1.97 0 2.98-.99 2.98-2.92V72.73h17.96c1.03 0 1.86.63 1.86 1.42V96.9c0 4.76-1.97 8.45-5.97 11.15-4 2.7-9.63 4.03-16.83 4.03-15.55 0-24-6.22-24-17.5V47.43c0-13.47 7.95-19.86 23.88-19.86 15.32 0 22.98 5.88 22.92 17.58zM207.7 28.28l-8.99-.01V16.42c0-.79-.84-1.42-1.88-1.42h-15.49l-3.86 13.12c-.02.1-.04.2-.04.3v67.8c0 4.76 1.99 8.45 6.01 11.15 3.83 2.57 9.16 3.9 15.92 4.02h8.32c1.04 0 1.88-.63 1.88-1.41V97.89h-7c-2.55 0-3.86-1.11-3.86-3.34V41.73h10.86V29.7c0-.79-.84-1.42-1.88-1.42z" clip-rule="evenodd"/></svg>
