<svg width="274" height="136" viewBox="0 0 274 136" fill="none" xmlns="http://www.w3.org/2000/svg">
<path fill-rule="evenodd" clip-rule="evenodd" d="M207.124 74.1854L222.243 21.408C222.598 20.1708 221.363 19 219.703 19H192.499L186 60.4917L179.501 19H152.296C150.637 19 149.401 20.1708 149.756 21.408L164.876 74.1854L149.055 132.615C148.721 133.846 149.954 135 151.601 135H179.001L186 91.2883L192.999 135H220.399C222.046 135 223.279 133.846 222.945 132.615L207.124 74.1854Z" fill="white"/>
<path fill-rule="evenodd" clip-rule="evenodd" d="M38.9555 23.599C38.9555 20.4764 37.2201 18.9153 33.7504 18.9153H29.5711V116.085H33.5928C37.142 116.085 38.9555 114.524 38.9555 111.401V23.599ZM36.5106 0C57.0138 0 69 8.40719 69 24.9198V110.5C69 124.959 58.5179 135 36.5106 135H2.60718C1.16703 135 0 134.111 0 133.015V1.98587C0 0.88895 1.16703 0 2.60718 0H36.5106Z" fill="white"/>
<path fill-rule="evenodd" clip-rule="evenodd" d="M106.91 38.9539V59.67H115.884V38.9539C115.884 35.8407 114.455 34.2838 111.675 34.2838C108.577 34.2838 106.989 35.8407 106.91 38.9539ZM144 42.5457V72.1789C144 73.272 142.824 74.1583 141.374 74.1583H106.91V114.447C106.91 117.56 108.577 119.117 111.834 119.117C114.614 119.117 116.043 117.741 116.043 115.046V81.0434H141.374C142.824 81.0434 144 81.9297 144 83.0228V114.807C144 121.453 141.22 126.601 135.582 130.372C129.942 134.145 121.999 136 111.834 136C89.9131 136 78 127.319 78 111.573V45.7185C78 26.921 89.1989 18 111.675 18C133.278 18 144.08 26.2024 144 42.5457Z" fill="white"/>
<path fill-rule="evenodd" clip-rule="evenodd" d="M271.374 18.5962L258.79 18.5842V1.98537C258.79 0.888924 257.614 0 256.163 0H234.468L229.061 18.3701C229.02 18.509 229 18.6515 229 18.7939V113.751C229 120.417 231.781 125.581 237.421 129.364C242.787 132.963 250.248 134.824 259.715 134.997C259.996 135.004 271.374 134.997 271.374 134.997C272.824 134.997 274 134.119 274 133.022V116.093H264.195C260.62 116.093 258.792 114.532 258.792 111.41L258.79 37.4339L274 37.4459V20.5815C274 19.4851 272.824 18.5962 271.374 18.5962Z" fill="white"/>
</svg>
