<svg id="Layer_1" data-name="Layer 1" xmlns="http://www.w3.org/2000/svg" viewBox="0 0 581.38 92.29"><defs><style>.cls-1{fill:#fff;}</style></defs><title>rb logo</title><path class="cls-1" d="M116.5,50.75H106V74.08H92.91V10.35h23.68q11.3,0,17.42,5t6.13,14.23a19.64,19.64,0,0,1-2.82,10.88,19.32,19.32,0,0,1-8.56,6.93l13.79,26.05v.61h-14.1ZM106,40.11h10.59c3.3,0,5.85-.83,7.66-2.51A9,9,0,0,0,127,30.66a9.66,9.66,0,0,0-2.56-7.09Q121.89,21,116.59,21H106Z"/><path class="cls-1" d="M168.73,75q-10.42,0-17-6.39t-6.54-17V50.32A28.76,28.76,0,0,1,148,37.55a20.38,20.38,0,0,1,7.82-8.66,21.93,21.93,0,0,1,11.54-3.05q9.72,0,15.29,6.13t5.58,17.38v5.17H158.05A11.75,11.75,0,0,0,161.74,62a11.19,11.19,0,0,0,7.82,2.8A13.65,13.65,0,0,0,181,59.46l6.22,7a19,19,0,0,1-7.71,6.29A25.28,25.28,0,0,1,168.73,75ZM167.28,36a7.87,7.87,0,0,0-6.1,2.55,13.11,13.11,0,0,0-3,7.3h17.59v-1a9.43,9.43,0,0,0-2.27-6.53A8.16,8.16,0,0,0,167.28,36Z"/><path class="cls-1" d="M215.09,64.76a8.23,8.23,0,0,0,5.68-1.93,6.74,6.74,0,0,0,2.28-5.12h11.86a16.16,16.16,0,0,1-2.62,8.82,17.38,17.38,0,0,1-7.07,6.22A22.22,22.22,0,0,1,215.3,75q-10.16,0-16-6.46t-5.86-17.83v-.84q0-10.94,5.82-17.47t16-6.52q8.88,0,14.24,5.06t5.45,13.46H223.05a8.71,8.71,0,0,0-2.28-6,8.45,8.45,0,0,0-12.45.92q-2.25,3.21-2.26,10.45V51q0,7.34,2.24,10.53A7.73,7.73,0,0,0,215.09,64.76Z"/><path class="cls-1" d="M263.94,75q-10.42,0-17-6.39t-6.54-17V50.32a28.76,28.76,0,0,1,2.75-12.77A20.38,20.38,0,0,1,251,28.89a21.91,21.91,0,0,1,11.54-3.05q9.72,0,15.29,6.13t5.58,17.38v5.17H253.26A11.75,11.75,0,0,0,257,62a11.19,11.19,0,0,0,7.82,2.8,13.65,13.65,0,0,0,11.42-5.3l6.22,7a19,19,0,0,1-7.71,6.29A25.28,25.28,0,0,1,263.94,75ZM262.49,36a7.87,7.87,0,0,0-6.1,2.55,13.11,13.11,0,0,0-3,7.3H271v-1a9.43,9.43,0,0,0-2.27-6.53A8.16,8.16,0,0,0,262.49,36Z"/><path class="cls-1" d="M304,74.9h-12.7V26.72H304Z"/><path class="cls-1" d="M355.54,50.84q0,10.95-5,17.53A15.9,15.9,0,0,1,337.16,75a14.78,14.78,0,0,1-11.6-5V92.29H312.9V26.72h11.74l.44,4.64a14.85,14.85,0,0,1,12-5.52q8.74,0,13.61,6.48t4.86,17.86Zm-12.65-.92q0-6.62-2.34-10.2a7.63,7.63,0,0,0-6.81-3.59q-6,0-8.18,4.56V60.08q2.32,4.68,8.27,4.68Q342.89,64.76,342.89,49.92Z"/><path class="cls-1" d="M378.53,15.08V26.72h8.09V36h-8.09V59.64a5.64,5.64,0,0,0,1,3.76c.67.76,2,1.14,3.85,1.14a19.85,19.85,0,0,0,3.73-.31v9.59A26.1,26.1,0,0,1,379.44,75q-13.31,0-13.57-13.44V36H359V26.72h6.91V15.08Z"/><path class="cls-1" d="M395.91,74.08V10.35h18.82q10.25,0,15.55,4.22T435.57,27a14.18,14.18,0,0,1-2.69,8.61,14.74,14.74,0,0,1-7.38,5.23,15.41,15.41,0,0,1,12.35,15.26q0,8.46-5.45,13.2t-15.17,4.74Zm5.38-35.14H416c4.5-.1,8-1.15,10.44-3.18s3.7-5,3.7-8.89q0-6.14-3.83-9T414.73,14.9H401.29Zm0,4.55v26h16.16q6.92,0,11-3.52t4-9.76a11.81,11.81,0,0,0-3.87-9.33q-3.87-3.44-10.7-3.43Z"/><path class="cls-1" d="M475.17,74.08a24.71,24.71,0,0,1-1-6.6,18.28,18.28,0,0,1-7,5.53,21.44,21.44,0,0,1-9,1.95q-6.83,0-11.06-3.81a12.39,12.39,0,0,1-4.22-9.63,12.71,12.71,0,0,1,5.75-11q5.76-4,16.05-4h9.49V41.17a10.39,10.39,0,0,0-3.12-8q-3.14-2.91-9.13-2.92a14.32,14.32,0,0,0-9.06,2.8,8.36,8.36,0,0,0-3.59,6.75L444,39.76q0-5.64,5.25-9.78a20.23,20.23,0,0,1,12.92-4.14q7.92,0,12.49,4t4.71,11.05V63.27q0,6.87,1.44,10.29v.52Zm-16.46-3.76a17.62,17.62,0,0,0,9.39-2.54,14.86,14.86,0,0,0,6-6.78V50.57h-9.36q-7.83.09-12.25,2.87a8.63,8.63,0,0,0-4.43,7.64,8.46,8.46,0,0,0,3,6.61A11.12,11.12,0,0,0,458.71,70.32Z"/><path class="cls-1" d="M493.2,26.72l.17,8.1A18.83,18.83,0,0,1,500,28.14a17.33,17.33,0,0,1,8.8-2.3q7.62,0,11.34,4.29T523.92,43V74.08h-5.2V43q0-6.35-2.7-9.45c-1.76-2.08-4.59-3.11-8.47-3.11a13.24,13.24,0,0,0-8.6,3,17.9,17.9,0,0,0-5.54,8.2V74.08h-5.2V26.72Z"/><path class="cls-1" d="M544,50.22,538,56V74.08h-5.25V10.35H538V49.87l4.95-5.33,18.12-17.82h6.61l-20.09,20,21.84,27.4h-6.26Z"/><circle class="cls-1" cx="297.6" cy="16.63" r="6.35"/><path class="cls-1" d="M573.32,11.47h-2v6.21h-1.24V11.47h-2V10.36h5.26Zm6.83.84-1.9,5.37h-.71l-1.91-5.35v5.35H574.4V10.36h1.53l2,5.44,2-5.44h1.53v7.32h-1.23Z"/><rect class="cls-1" x="45.72" y="26.64" width="9.26" height="3.97"/><rect class="cls-1" x="19.83" y="26.64" width="19.61" height="3.97"/><rect class="cls-1" x="19.83" y="46.92" width="15.15" height="3.97"/><rect class="cls-1" x="19.83" y="36.78" width="24.62" height="3.97"/><polygon class="cls-1" points="73.36 21.76 37.55 4.41 1.73 21.76 0 18.2 37.55 0 75.09 18.2 73.36 21.76"/><path class="cls-1" d="M59.82,72.14l-2.9-2L52,73.5l-4.89-3.37L42.27,73.5l-4.89-3.37L32.5,73.5l-4.88-3.37L22.73,73.5l-4.88-3.37-2.91,2V20.61l-4,2V79.69L17.85,75l4.88,3.37L27.62,75l4.88,3.37L37.38,75l4.89,3.37L47.15,75,52,78.32,56.92,75l6.87,4.74V54.35c-1.34,1.65-2.67,3.46-4,5.42Z"/><path class="cls-1" d="M63.79,22.05l-4-2V35.36c1.4-1.3,2.74-2.46,4-3.47Z"/><path class="cls-1" d="M51,66.88,38.14,51.94l6-5.19,5.65,6.56C60.25,37.43,72.87,30.17,73.45,29.84l3.91,6.91-2-3.45,2,3.45A71.55,71.55,0,0,0,53.8,62Z"/></svg>